<?xml version="1.0" ?>
<!-- Uploaded to: SVG Repo, www.svgrepo.com, Generator: SVG Repo Mixer Tools -->
<svg width="800px" height="800px" viewBox="0 0 24 24" version="1.1" xml:space="preserve" xmlns="http://www.w3.org/2000/svg" xmlns:xlink="http://www.w3.org/1999/xlink">
<style type="text/css">
	.st0{opacity:0.2;fill:none;stroke:#000000;stroke-width:5.000000e-02;stroke-miterlimit:10;}
</style>
<g id="Layer_Grid"/>
<g id="Layer_2">
<path d="M3.9,16.2C4,17.8,5.3,19,6.9,19h1.3c1.6,0,2.9-1.2,3-2.8l0.6-7.6c0-0.1,0-0.2,0-0.4C11.7,5.9,9.8,4,7.5,4   C6.3,4,5.2,4.5,4.4,5.4c-0.8,0.9-1.2,2-1.1,3.2L3.9,16.2z M9.1,16.1c0,0.5-0.5,0.9-1,0.9H6.9c-0.5,0-1-0.4-1-0.9L5.5,11h4.1   L9.1,16.1z M5.9,6.7C6.3,6.3,6.9,6,7.5,6c1.2,0,2.2,1,2.2,2.2c0,0.1,0,0.1,0,0.2l0,0.6H5.3l0-0.6C5.2,7.8,5.4,7.2,5.9,6.7z"/>
<path d="M13.7,20.5l1.2,0.4c0.3,0.1,0.6,0.1,0.8,0.1c1.2,0,2.4-0.7,2.8-1.9l2.8-7.1c0.1-0.1,0.1-0.2,0.1-0.3c0,0,0,0,0,0   c0.3-1.1,0.2-2.2-0.3-3.2c-0.5-1-1.4-1.7-2.5-2.1c-1.1-0.3-2.4-0.2-3.4,0.4c-1,0.6-1.7,1.6-2,2.8L11.7,17   C11.3,18.5,12.2,20,13.7,20.5z M15.2,9.9c0.1-0.6,0.5-1.1,1-1.5c0.2-0.1,0.3-0.2,0.5-0.2c0.1,0,0.1,0,0.2,0c0.1,0,0.3,0,0.4-0.1   c0.1,0,0.1,0,0.2,0c0.2,0,0.4,0,0.6,0.1c0.6,0.2,1,0.6,1.3,1.1c0.3,0.5,0.3,1.1,0.2,1.7c0,0,0,0.1-0.1,0.2l-0.2,0.6l-4.2-1.3   L15.2,9.9z M13.6,17.4l1.1-5l3.9,1.2l-1.8,4.7c-0.2,0.5-0.7,0.8-1.2,0.6l-1.2-0.4C13.8,18.4,13.5,17.9,13.6,17.4z"/>
</g>
</svg>